<?xml version="1.0" encoding="UTF-8" standalone="no"?>
<!-- Created with Inkscape (http://www.inkscape.org/) -->

<svg
   width="574.28394"
   height="177.58603"
   viewBox="0 0 574.28394 177.58603"
   version="1.1"
   id="svg5"
   xml:space="preserve"
   inkscape:version="1.2.1 (8a69933317, 2022-10-28, custom)"
   sodipodi:docname="logo"
   xmlns:inkscape="http://www.inkscape.org/namespaces/inkscape"
   xmlns:sodipodi="http://sodipodi.sourceforge.net/DTD/sodipodi-0.dtd"
   xmlns="http://www.w3.org/2000/svg"
   xmlns:svg="http://www.w3.org/2000/svg"><sodipodi:namedview
     id="namedview7"
     pagecolor="#ffffff"
     bordercolor="#000000"
     borderopacity="0.25"
     inkscape:showpageshadow="2"
     inkscape:pageopacity="0.0"
     inkscape:pagecheckerboard="0"
     inkscape:deskcolor="#d1d1d1"
     inkscape:document-units="px"
     showgrid="false"
     showguides="true"
     inkscape:zoom="0.6180637"
     inkscape:cx="535.5435"
     inkscape:cy="482.15095"
     inkscape:window-width="1366"
     inkscape:window-height="704"
     inkscape:window-x="0"
     inkscape:window-y="27"
     inkscape:window-maximized="1"
     inkscape:current-layer="layer4" /><defs
     id="defs2" /><g
     inkscape:label="Capa 1"
     inkscape:groupmode="layer"
     id="layer1"
     style="display:inline"
     transform="translate(-74.614532,-147.29507)"><path
       style="fill:#66fcf1;fill-opacity:1;stroke:none;stroke-width:2.83648;stroke-opacity:1"
       d="m 80.638876,294.82876 c -4.84653,-11.39334 -3.93451,-30.08585 2.09216,-42.87988 9.16346,-19.45319 21.278084,-24.11754 68.767414,-26.4774 42.08832,-2.09137 42.22,-2.07286 41.72585,5.86963 -0.5663,9.1026 -8.98115,27.09201 -14.09673,30.13619 -1.89064,1.12511 -6.42488,4.2043 -10.0761,6.84264 -3.65122,2.63836 -15.1269,5.44672 -25.50151,6.2408 l -18.86292,1.4438 0.80714,23.77642 c 0.44394,13.077 -0.58131,24.17783 -2.27834,24.66848 -11.59138,3.35129 -35.679964,-13.40707 -42.576964,-29.62068 z m -6.02014,-89.55113 c -0.0976,-15.33494 1.48262,-22.19535 7.08058,-30.74059 13.05,-19.92073 20.975184,-22.15084 90.356034,-25.42597 35.01132,-1.6527 64.39838,-2.29663 65.30462,-1.43093 3.95109,3.77438 -2.93771,23.59835 -11.57703,33.31529 -12.39846,13.94444 -19.36432,15.86564 -62.84543,17.32985 -47.77806,1.60896 -63.538004,5.12515 -77.426864,17.27474 l -10.76628,9.41803 z"
       id="path317"
       sodipodi:nodetypes="ssssssscsssssssssscs"
       inkscape:export-filename="../bc0d5f8b/felpoi-logo.svg"
       inkscape:export-xdpi="96"
       inkscape:export-ydpi="96" /><path
       id="text470"
       style="font-style:normal;font-variant:normal;font-weight:normal;font-stretch:normal;font-size:174.68px;font-family:Montserrat;-inkscape-font-specification:'Montserrat, @wght=900';font-variant-ligatures:normal;font-variant-caps:normal;font-variant-numeric:normal;font-variant-east-asian:normal;font-variation-settings:'wght' 900;fill:#66fcf1;fill-opacity:1;stroke:none;stroke-width:8.49808;stroke-opacity:1;stop-color:#000000"
       d="m 625.14258,147.58008 c -7.2201,0 -12.9842,1.92267 -17.29297,5.76562 -4.30877,3.84296 -6.46484,8.61801 -6.46484,14.32422 0,5.70621 2.15607,10.47931 6.46484,14.32227 4.30877,3.84295 10.07287,5.76562 17.29297,5.76562 7.2201,0 12.9842,-1.92267 17.29297,-5.76562 4.30877,-3.95941 6.46289,-8.96592 6.46289,-15.02149 0,-5.7062 -2.15412,-10.36456 -6.46289,-13.97461 -4.30877,-3.61005 -10.07287,-5.41601 -17.29297,-5.41601 z m -299.5957,13.80078 v 129.61328 h 39.47656 V 161.38086 Z m -58.50977,32.31641 c -10.24788,0 -19.50526,2.09479 -27.77344,6.28711 -8.15172,4.19231 -14.61604,10.01574 -19.39062,17.46874 -4.65813,7.45301 -6.98633,16.01212 -6.98633,25.67774 0,9.43271 2.38753,17.93445 7.16211,25.50391 4.77458,7.453 11.47035,13.3338 20.08789,17.64257 8.73399,4.30877 18.92304,6.46289 30.56836,6.46289 9.54916,0 17.70079,-1.28177 24.45508,-3.84375 6.87074,-2.67842 12.63679,-6.5218 17.29492,-11.52929 L 291.8418,256.58203 c -3.14424,2.32907 -6.17266,4.0757 -9.08399,5.24024 -2.79487,1.16453 -6.40485,1.74609 -10.83008,1.74609 -4.30876,0 -7.97612,-0.69827 -11.0039,-2.0957 -3.02779,-1.5139 -5.35794,-3.72735 -6.98828,-6.63868 -0.43292,-0.77306 -0.80314,-1.59013 -1.1211,-2.44531 h 66.27735 c 0.11645,-1.39744 0.23315,-2.91067 0.34961,-4.54101 0.11645,-1.7468 0.17382,-3.31936 0.17382,-4.7168 0,-10.83015 -2.4449,-19.91345 -7.33593,-27.25 -4.77458,-7.33655 -11.17958,-12.86725 -19.21485,-16.59375 -7.91882,-3.7265 -16.59463,-5.58984 -26.02734,-5.58984 z m 169.50586,0 c -8.73399,0 -15.77987,1.74663 -21.13672,5.24023 -1.8669,1.21754 -3.55311,2.67312 -5.06641,4.35742 v -7.85156 h -37.55468 v 129.4375 h 39.47656 v -40.3457 c 1.13993,1.09478 2.36189,2.08466 3.66797,2.96484 5.4733,3.4936 12.3451,5.24023 20.61328,5.24023 8.38463,0 16.06945,-1.98004 23.05664,-5.93945 6.98719,-3.95941 12.57721,-9.60681 16.76953,-16.94336 4.19232,-7.453 6.28906,-16.30485 6.28906,-26.55273 0,-10.24789 -2.09674,-19.03845 -6.28906,-26.375 -4.19232,-7.45301 -9.78234,-13.15973 -16.76953,-17.11914 -6.98719,-4.07587 -14.67201,-6.11328 -23.05664,-6.11328 z m 107.38086,0 c -10.83015,0 -20.43764,2.09479 -28.82227,6.28711 -8.26818,4.19231 -14.78792,10.01574 -19.5625,17.46874 -4.77458,7.45301 -7.16211,16.01212 -7.16211,25.67774 0,9.66562 2.38753,18.22473 7.16211,25.67773 4.77458,7.45301 11.29432,13.33381 19.5625,17.64258 8.38463,4.19232 17.99212,6.28906 28.82227,6.28906 10.83015,0 20.43763,-2.09674 28.82226,-6.28906 8.38464,-4.30877 14.90633,-10.18957 19.56446,-17.64258 4.77458,-7.453 7.16211,-16.01211 7.16211,-25.67773 0,-9.66562 -2.38753,-18.22473 -7.16211,-25.67774 -4.65813,-7.453 -11.17982,-13.27643 -19.56446,-17.46874 -8.38463,-4.19232 -17.99211,-6.28711 -28.82226,-6.28711 z m 61.47851,1.74609 v 95.55078 h 39.47852 v -95.55078 z m -338.01562,25.1543 c 3.26069,0 6.0557,0.75564 8.38476,2.26953 2.32907,1.39744 4.13503,3.43681 5.41602,6.11523 0.71146,1.30435 1.23865,2.761 1.58789,4.36719 h -30.82031 c 0.32014,-1.60616 0.80487,-3.06287 1.45703,-4.36719 1.28098,-2.67842 3.08695,-4.71779 5.41601,-6.11523 2.44552,-1.51389 5.29791,-2.26953 8.5586,-2.26953 z m 159.72266,3.84179 c 2.91133,0 5.53226,0.70022 7.86132,2.09766 2.32907,1.39744 4.19241,3.49223 5.58985,6.28711 1.39744,2.79488 2.0957,6.28815 2.0957,10.48047 0,4.07586 -0.69826,7.51176 -2.0957,10.30664 -1.39744,2.79488 -3.26078,4.89162 -5.58985,6.28906 -2.32906,1.39744 -4.94999,2.0957 -7.86132,2.0957 -2.91134,0 -5.53032,-0.69826 -7.85938,-2.0957 -2.32906,-1.39744 -4.19241,-3.49418 -5.58984,-6.28906 -1.39744,-2.79488 -2.09766,-6.23078 -2.09766,-10.30664 0,-4.19232 0.70022,-7.68559 2.09766,-10.48047 1.39743,-2.79488 3.26078,-4.88967 5.58984,-6.28711 2.32906,-1.39744 4.94804,-2.09766 7.85938,-2.09766 z m 116.81445,0 c 2.91133,0 5.53226,0.70022 7.86133,2.09766 2.32906,1.39744 4.1924,3.49223 5.58984,6.28711 1.39744,2.67842 2.0957,6.11432 2.0957,10.30664 0,4.07586 -0.69826,7.56914 -2.0957,10.48047 -1.39744,2.79488 -3.26078,4.89162 -5.58984,6.28906 -2.32907,1.39744 -4.95,2.0957 -7.86133,2.0957 -2.91133,0 -5.53031,-0.69826 -7.85938,-2.0957 -2.32906,-1.39744 -4.1924,-3.49418 -5.58984,-6.28906 -1.39744,-2.91133 -2.0957,-6.40461 -2.0957,-10.48047 0,-4.19232 0.69826,-7.62822 2.0957,-10.30664 1.39744,-2.79488 3.26078,-4.88967 5.58984,-6.28711 2.32907,-1.39744 4.94805,-2.09766 7.85938,-2.09766 z" /></g></svg>
